<?xml version="1.0" encoding="utf-8"?>
<!-- Generator: Adobe Illustrator 16.0.0, SVG Export Plug-In . SVG Version: 6.00 Build 0)  -->
<!DOCTYPE svg PUBLIC "-//W3C//DTD SVG 1.1//EN" "http://www.w3.org/Graphics/SVG/1.1/DTD/svg11.dtd">
<svg version="1.1" id="Layer_1" xmlns="http://www.w3.org/2000/svg" xmlns:xlink="http://www.w3.org/1999/xlink" x="0px" y="0px"
	 width="229px" height="244px" viewBox="0 0 229 244" enable-background="new 0 0 229 244" xml:space="preserve">
<path fill="#F2C8B1" d="M95.109,101.52c0.945,3.083,3.187,7.669,1.779,10.909c-0.894,2.057-3.092,2.843-5.237,2.839
	c-5.843-0.011-11.124-2.697-17.454-2.015c-2.646,0.285-3.813,0.875-6.179,1.963c-2.992,1.377-6.442,1.77-9.429,3.049
	c-3.038,1.301-4.759,3.781-6.757,6.321c-2.54,3.229-2.041,5.07-2.47,8.978c-0.328,2.979-0.824,5.46-0.512,8.51
	c0.577,5.608,0.863,11.07,1.434,16.678c0.564,5.548,1.246,11.627,2.828,17.009c1.595,5.426,4.602,9.993,7.983,14.451
	c4.005,5.279,9.671,4.923,15.606,5.799c5.395,0.795,8.965-2.217,14.111-2.322c8.175-0.17,11.242,4.021,17.895,7.102
	c5.066,2.347,10.79,2.849,16.034,4.683c5.562,1.945,11.616,2.977,17.468,3.788c3.809,0.528,8.189,1.602,12.028,1.416
	c3.49-0.168,6.938-1.153,10.521-1.207c8.262-0.125,16.902,0.937,24.669-2.573c8.176-3.695,11.861-10.376,11.597-18.897
	c-0.424-13.637-1.422-26.821-4.351-40.159c-2.024-9.219-4.71-21.643-12.253-28.106c-7.43-6.366-18.672-5.838-27.865-6.203
	c-2.702-0.107-5.16-0.454-7.83-0.865c-3.604-0.554-6.602-1.393-9.814-3.124c-3.155-1.7-5.153-6.452-5.915-9.791
	c-0.417-1.824,0.149-3.048,0.125-4.875c-0.021-1.655-0.436-3.282-0.6-4.924"/>
<path fill="#EFE97F" d="M51.239,74.543c0.843,7.892,1.808,15.782,1.992,23.725c0.137,5.949-1.488,12.31-0.385,18.178
	c0.374,1.986,1.512,3.764,1.955,5.743c-0.308-1.376,4.638-4.368,5.672-4.756c3.04-1.14,6.608-1.955,9.807-2.456
	c3.197-0.502,5.576,1.809,8.691,1.554c3.302-0.271,7.658-4.932,10.34-6.78c0.978-0.674,2.085-1.173,2.991-1.935
	c1.08-0.906,1.744-2.279,2.79-3.173c0.776-0.663,2.218-0.473,2.547-1.665c0.575-2.08-2.122-1.848-3.182-2.613"/>
<path fill="#F2BFB1" stroke="#9E4271" stroke-miterlimit="10" d="M130.308,100.063c15.849-24.325,10.325-67.033-15.643-82.861
	c-4.15-2.528-10.351-2.271-15.491-1.983c-30.319,1.7-42.776,27.675-32.527,54.973c3.143,8.375,9.661,17.953,16.65,23.339
	C93.979,101.763,119.523,116.611,130.308,100.063z"/>
<path fill="none" stroke="#9E4271" stroke-linecap="round" stroke-linejoin="round" stroke-miterlimit="10" d="M186.174,122.123
	c5.771,5.744,10.202,20.632,12.271,38.113c1.377,11.629,4.678,23.457,1.859,35.136c-2.793,11.569-13.75,12.173-23.707,13.198
	c-11.199,1.155-22.172,1.817-33.389,0.271c-10.716-1.479-21.491-3.296-31.496-7.545c-8.367-3.553-17.709-11.048-26.919-5.252"/>
<path fill="none" stroke="#634C44" stroke-linecap="round" stroke-linejoin="round" stroke-miterlimit="10" d="M53.86,206.209
	c-2.391,1.681-5.202,3.489-7.3,7.402c-0.666,1.241-2.817,9.81-3.725,10.125c-2.291,0.793-1.688-3.866-1.584-4.793
	c0.15-1.361,2.275-11.428,4.644-10.752c-7.68-2.209-9.361,13.558-13.835,16.053c-3.157,1.759-2.289-2.203-1.8-4.108
	c1.072-4.175,4.16-12.42,7.909-14.987c-4.609,3.107-7.034,6.978-9.439,11.934c-0.67,1.381-1.357,4.648-2.651,5.559
	c-6.511,4.579-0.208-11.82,0.998-13.555c2.068-2.979,5.079-5.514,5.868-9.135c-0.117,0.535-7.22,2.48-8.214,3.344
	c-2.376,2.062-3.077,5.361-6.287,6.65c-0.132-0.118-0.267-0.23-0.407-0.336c-0.143-6.043,5.095-10.18,10.236-12.544
	c6.014-2.767,12.656-4.821,18.258-8.248c0.998-0.61,8.504-6.515,9.438-5.704"/>
<path fill="none" stroke="#9E4271" stroke-linecap="round" stroke-linejoin="round" stroke-miterlimit="10" d="M79.361,115.498
	c-3.046,1.67-7.877-1.346-11.291-0.312c-6.561,1.988-15.079,5.22-17.895,12.427c-3.096,7.926-1.046,17.331-0.201,25.6
	c0.88,8.615,2.697,23.375,6.411,29.748"/>
<path fill="none" stroke="#9E4271" stroke-linecap="round" stroke-linejoin="round" stroke-miterlimit="10" d="M93.314,115.176
	c1.406,0.181,5.073-1.084,5.806-2.467c1.085-2.045-0.233-8.736-1.87-10.092"/>
<path fill="none" stroke="#9E4271" stroke-linecap="round" stroke-linejoin="round" stroke-miterlimit="10" d="M87.598,177.801
	c5.66,1.462,13.064,0.242,19.101,1.155c6.435,0.973,63.486,4.896,70.795,10.358"/>
<path fill="none" stroke="#000000" stroke-linecap="round" stroke-linejoin="round" stroke-miterlimit="10" d="M83.541,68.326
	c1.325-3.611,3.875-4.501,7.121-5.535"/>
<path fill="#EFE97F" d="M102.075,107.309c0.065,0.105,0.13,0.212,0.189,0.321c1.177,2.131,1.49,4.965,1.884,7.358
	c0.452,2.756,0.697,5.59,1.639,8.238c0.462,1.299,2.809,6.305,4.6,6.019c-4.158,0.663-7.131-4.209-9.539-6.927
	c0.597,2.99,1.835,6.24,3.534,8.87c-3.626-5.614-9.106-10.319-15.111-12.402c-8.163-2.832-14.395-8.363-21.467-13.117
	c-10.511-7.065-12.194-17.443-13.099-29.151c-1.771,6.502-3.474,13.327-5.516,19.689c-1.71,5.323-3.517,15.241-8.028,18.443
	c4.018-13.174,4.862-27.366,6.575-40.849c1.767-13.938,6.508-37.426,18.936-45.84c3.83-2.594,8.065-4.652,11.975-7.144
	c5.85-3.729,11.305-5.243,17.634-7.744c4.329-1.71,12.756-5.485,16.378-0.845c1.768,2.264,1.428,6.362,1.92,9.022
	c0.736,3.991,2.035,7.892,3.197,11.773c1.413,4.719,3.426,9.377,4.582,14.159c-3.512-5.129-6.908-10.241-9.201-15.983
	c0.785,6.302,2.211,13.842,5.842,18.863c-3.466,2.825-8.537,7.099-12.774,8.047c-1.753-4.684-4.847-9.411-7.097-13.841
	c1.125,5.705,1.815,11.348,3.78,16.828c1.019,2.845-22.683,7.173-25.097,7.5c2.528,6.485,4.989,13.243,7.701,19.81
	c1.463,3.538,2.111,7.56,4.402,10.712c0.841,1.156,1.902,1.506,3.151,2.042c1.271,0.545,2.265,1.407,3.528,2.01
	C98.577,104.12,100.852,105.381,102.075,107.309z"/>
<path fill="#EFE97F" d="M109.918,26.394c2.872,5.914,9.314,10.494,13.753,15.183c5.508,5.818,6.896,8.928,8.922,16.597
	c1.701,6.445,2.766,13.031,2.857,19.704c0.043,3.252-0.358,6.481-0.366,9.722c-0.006,2.146-0.555,4.304-1.059,6.375
	c-0.298,1.231-1.301,2.505-1.359,3.748c-0.05,1.014,0.471,2.859,0.709,3.862c0.799,3.367,3.249,7.669,6.934,8.298
	c2.683-3.04,2.005-8.31,1.993-12.025c-0.013-3.651-0.318-7.349,0.101-10.988c1.505,4.285,1.941,9.917,4.163,14.309
	c-0.12-10.897,0.767-22.982-1.919-33.314c-2.633-10.118-4.635-22.091-9.743-31.19c-4.996-8.892-13.577-15.866-20.819-22.845"/>
<path fill="#A7F6C2" d="M101.871,157.89c-12.466-7.141-15.214-21.433-17.662-34.475c-0.557-2.967-0.772-6.038-3.689-7.51
	c-1.512-0.762-5.204-1.639-6.588-0.275c-1.083,1.067-0.963,5.011-1.065,6.424c-0.328,4.565,0.058,9.198-0.621,13.738
	c-0.969,6.483-2.307,12.911-4.047,19.233c-2.757,10.013,0.066,20.535,11.392,23.122c7.918,1.81,16.079,0.388,24.09,0.593
	c11.253,0.289,22.654,1.909,33.826,3.494c4.685,0.664,9.512,1.246,14.277,1.908c3.791,0.525,7.814,0.014,11.531,0.817
	c4.355,0.942,5.794,2.888,8.918-1.647c1.645-2.388,2.231-6.805,2.242-9.631c0.044-10.807-5.822-20.434-6.9-31.091
	c-0.453-4.494-0.561-9.026-0.206-13.532c0.184-2.341,0.962-4.6,1.296-6.918c0.167-1.166,0.826-6.134,0.108-7.051
	c-2.034-2.601-7.122-1.012-9.786-1.233c0.625,2.655,0.596,5.248,0.458,7.965c-0.15,2.966-0.82,5.92-0.969,8.913
	c-0.354,7.17-1.943,14.651-5.922,20.808c-8.654,13.392-29.901,11.886-43.251,9.185C106.691,160.197,104.192,159.219,101.871,157.89z
	"/>
<path fill="none" stroke="#9E4271" stroke-linecap="round" stroke-linejoin="round" stroke-miterlimit="10" d="M132.706,96.467
	c1.125,10.023,4.543,13.086,13.157,15.604c15.044,4.398,27.022-0.807,40.311,10.053"/>
<path fill="#F2BFB1" stroke="#9E4271" stroke-miterlimit="10" d="M60.784,198.881c1.057,4.756-1.386,4.785-4.853,6.328
	c-3.831,1.705-7.375,4.678-9.371,8.402c-0.666,1.241-2.817,9.81-3.725,10.125c-2.291,0.793-1.688-3.866-1.584-4.793
	c0.15-1.361,2.275-11.428,4.644-10.752c-7.68-2.209-9.361,13.558-13.835,16.053c-3.157,1.759-2.289-2.203-1.8-4.108
	c1.072-4.175,4.16-12.42,7.909-14.987c-4.609,3.107-7.034,6.978-9.439,11.934c-0.67,1.381-1.357,4.648-2.651,5.559
	c-6.511,4.579-0.208-11.82,0.998-13.555c2.068-2.979,5.079-5.514,5.868-9.135c-0.117,0.535-7.22,2.48-8.214,3.344
	c-2.376,2.062-3.077,5.361-6.287,6.65c-0.132-0.118-0.267-0.23-0.407-0.336c-0.143-6.043,5.095-10.18,10.236-12.544
	c6.014-2.767,12.656-4.821,18.261-8.25c5.319-3.266,10.725-8.281,17.424-7.138"/>
<path fill="none" stroke="#9E4271" stroke-linecap="round" stroke-linejoin="round" stroke-miterlimit="10" d="M87.598,177.801
	c5.66,1.462,13.064,0.242,19.101,1.155c6.435,0.973,63.486,4.896,70.795,10.358"/>
<path fill="none" stroke="#9E4271" stroke-linecap="round" stroke-linejoin="round" stroke-miterlimit="10" d="M90.14,72.079
	c4.221,1.448,8.925-0.536,11.605-3.867"/>
<path fill="none" stroke="#9E4271" stroke-linecap="round" stroke-linejoin="round" stroke-miterlimit="10" d="M129.279,57.943
	c-1.294,1.741-4.582,4.411-7,4.125"/>
<path fill="none" stroke="#9E4271" stroke-linecap="round" stroke-linejoin="round" stroke-miterlimit="10" d="M117.423,86.379
	c1.971,0.638,6.794-3.249,7.139-5.539c0.431-2.85-1.909-6.999-2.968-9.59c-3.055-7.478-5.336-13.008-0.582-20.2"/>
<path fill="none" stroke="#9E4271" stroke-linecap="round" stroke-linejoin="round" stroke-miterlimit="10" d="M83.541,68.326
	c1.325-3.611,3.875-4.501,7.121-5.535"/>
<path fill="none" stroke="#9E4271" stroke-linecap="round" stroke-linejoin="round" stroke-miterlimit="10" d="M120.875,93.729
	c-3.062-0.154-6.067,0.905-8.776,2.245c-2.64,1.306-4.046,0.844-5.224-2.37"/>
<path fill="none" stroke="#9E4271" stroke-linecap="round" stroke-linejoin="round" stroke-miterlimit="10" d="M165.98,142.288
	c5.519,12.196,13.597,31.862,2.895,44.017"/>
<path fill="#F2BFB1" stroke="#9E4271" stroke-miterlimit="10" d="M71.423,97.749c-2.063-0.054-3.57-1.621-5.293-2.619
	c-1.094-0.634-2.34-1.559-3.299-2.374c-0.85-0.722-1.791-1.267-2.666-1.954c-1.774-1.396-3.529-2.768-4.858-4.598
	c-0.463-0.638-0.896-1.277-1.256-1.978c-0.291-0.567-0.925-1.368-0.988-2.009c1.839-0.355,3.596,1.403,4.674,2.662
	c1.29,1.507,2.392,3.161,4.411,3.791"/>
<path fill="#F2BFB1" stroke="#9E4271" stroke-miterlimit="10" d="M75.156,101.588c-0.679-1.529-3.942-3.316-5.368-4.333
	c-3.74-2.665-6.675-5.277-9.559-8.869c-1.972-2.457-3.394-5.116-4.267-8.19c-0.649-2.286-1.498-4.852-1.449-7.256
	c2.143,0.79,3.925,4.98,4.866,7.042c0.979,2.14,1.686,4.523,3.244,6.338c1.709,1.991,3.962,3.807,5.919,5.566"/>
<path fill="#F2BFB1" stroke="#9E4271" stroke-miterlimit="10" d="M79.375,111.002c0.89,4.134-0.392,8.529-1.426,12.513
	c-1.104,4.252-2.044,8.612-3.421,12.789c-5.62,17.021-11.292,34.016-16.774,51.089c-2.354,7.329-2.945,18.204,0.722,25.079
	c6.017,11.275,21.662,8.532,24.892-3.178c3.896-14.122,4.398-29.807,5.72-44.347c0.885-9.733,1.729-19.469,2.492-29.213
	c0.515-6.557,0.594-12.688,0.57-19.275c-0.033-9.312-2.019-15.084-9.268-21.1c-3.94-3.271-7.137-7.413-9.573-11.901
	c-1.254-2.306-2.182-4.697-3.12-7.139c-0.351-0.911-0.93-4.705-2.069-4.765c-1.312-0.069-0.823,2.531-0.79,3.312
	c0.124,2.848,0.585,5.471,1.805,8.071c1.158,2.469,2.99,4.554,4.154,7.02c0.231,0.49,1.192,1.926,0.398,2.076
	c-0.41,0.077-1.232-0.694-1.514-0.954c-0.814-0.754-1.59-1.55-2.326-2.38c-1.506-1.694-2.857-3.531-4.001-5.487
	c-2.043-3.498-2.496-11.981-6.217-13.945c0.482,0.254,0.848,8.546,1.18,9.688c0.834,2.862,2.362,5.453,3.807,8.055
	c1.878,3.379,4.281,6.413,6.527,9.544C72.884,98.981,78.754,108.117,79.375,111.002z"/>
<path fill="#F2BFB1" d="M75.847,102.133c-1.143-1.328-2.208-2.807-3.568-3.938c-0.796-0.662-1.821-1.013-2.61-1.714
	c-1.104-0.979-1.995-2.154-2.984-3.239c-0.946-1.036-1.825-2.111-2.716-3.193c-0.476-0.58-1.419-1.405-1.489-2.17
	c1.026,0.058,2.267,1.228,2.97,1.924c0.392,0.388,1.544,2.027,2.131,1.835c0.817-0.268-0.897-1.806,0.515-1.804
	c0.68,0.002,1.048,0.69,1.41,1.13c0.615,0.75,1.319,1.427,2.076,2.039c0.62,0.505,1.679,0.947,1.831,1.817"/>
<path fill="#A7F6C2" d="M159.133,114.54c-0.741-2.955,3.911-2.563,5.585-2.347c1.122,0.145,2.771,0.311,3.646,1.095
	c2.282,2.044-1.025,6.234-2.228,8.062"/>
<path fill="#F9A2B5" d="M89.094,78.893c1.752-1.641,8.792-3.484,9.964-0.195c1.094,3.073-5.596,7.03-7.957,7.163
	C85.855,86.152,85.839,81.941,89.094,78.893z"/>
<path fill="#F9A2B5" d="M126.467,64.411c9.507-8.72,8.516,5.909,2.592,6.429C125.465,71.156,123.993,66.682,126.467,64.411z"/>
<path fill="none" stroke="#9E4271" stroke-linecap="round" stroke-linejoin="round" stroke-miterlimit="10" d="M90.628,80.848
	c1.82,1.759,2.134,5.7,2.236,8.159"/>
<path fill="none" stroke="#9E4271" stroke-linecap="round" stroke-linejoin="round" stroke-miterlimit="10" d="M94.074,80.146
	c1.312,1.871,2.09,4.47,2.1,6.82"/>
<path fill="#9E4271" d="M98.253,73.46c-2.148-0.305-1.241-2.457,0.326-2.933c2.442-0.742,2.641,3.2-0.138,2.956
	C98.381,73.477,98.318,73.469,98.253,73.46z"/>
<path fill="#9E4271" d="M128.879,62.304c0.456-0.776,0.397-1.802-0.719-2.109c-2.084-0.573-3.264,2.497-1.051,3.005
	C127.843,63.369,128.521,62.913,128.879,62.304z"/>
</svg>
